<svg xmlns="http://www.w3.org/2000/svg" viewBox="0 0 64 64">
  <rect width="64" height="64" rx="12" fill="#0a0a0a"/>
  <circle cx="32" cy="32" r="18" fill="none" stroke="#ffffff" stroke-width="3"/>
  <circle cx="32" cy="32" r="5" fill="#ffffff"/>
  <rect x="30" y="12" width="4" height="5" rx="1" fill="#ffffff"/>
  <rect x="30" y="47" width="4" height="5" rx="1" fill="#ffffff"/>
  <rect x="12" y="30" width="5" height="4" rx="1" fill="#ffffff"/>
  <rect x="47" y="30" width="5" height="4" rx="1" fill="#ffffff"/>
  <rect x="19" y="19" width="5" height="4" rx="1" fill="#ffffff" transform="rotate(45, 21, 21)"/>
  <rect x="40" y="40" width="5" height="4" rx="1" fill="#ffffff" transform="rotate(45, 42, 42)"/>
  <rect x="40" y="19" width="5" height="4" rx="1" fill="#ffffff" transform="rotate(-45, 42, 21)"/>
  <rect x="19" y="40" width="5" height="4" rx="1" fill="#ffffff" transform="rotate(-45, 21, 42)"/>
</svg>
